<svg width="48" height="48" viewBox="0 0 48 48" fill="none" xmlns="http://www.w3.org/2000/svg">
<path d="M24.7071 4.29289C24.3166 3.90237 23.6834 3.90237 23.2929 4.29289L16.9289 10.6569C16.5384 11.0474 16.5384 11.6805 16.9289 12.0711C17.3195 12.4616 17.9526 12.4616 18.3431 12.0711L24 6.41421L29.6569 12.0711C30.0474 12.4616 30.6805 12.4616 31.0711 12.0711C31.4616 11.6805 31.4616 11.0474 31.0711 10.6569L24.7071 4.29289ZM23.2929 37.7071C23.6834 38.0976 24.3166 38.0976 24.7071 37.7071L31.0711 31.3431C31.4616 30.9526 31.4616 30.3195 31.0711 29.9289C30.6805 29.5384 30.0474 29.5384 29.6569 29.9289L24 35.5858L18.3431 29.9289C17.9526 29.5384 17.3195 29.5384 16.9289 29.9289C16.5384 30.3195 16.5384 30.9526 16.9289 31.3431L23.2929 37.7071ZM23 5L23 37L25 37L25 5L23 5Z" fill="#313131"/>
<path d="M40.7071 21.7071C41.0976 21.3166 41.0976 20.6834 40.7071 20.2929L34.3431 13.9289C33.9526 13.5384 33.3195 13.5384 32.9289 13.9289C32.5384 14.3195 32.5384 14.9526 32.9289 15.3431L38.5858 21L32.9289 26.6569C32.5384 27.0474 32.5384 27.6805 32.9289 28.0711C33.3195 28.4616 33.9526 28.4616 34.3431 28.0711L40.7071 21.7071ZM7.29289 20.2929C6.90237 20.6834 6.90237 21.3166 7.29289 21.7071L13.6569 28.0711C14.0474 28.4616 14.6805 28.4616 15.0711 28.0711C15.4616 27.6805 15.4616 27.0474 15.0711 26.6569L9.41421 21L15.0711 15.3431C15.4616 14.9526 15.4616 14.3195 15.0711 13.9289C14.6805 13.5384 14.0474 13.5384 13.6569 13.9289L7.29289 20.2929ZM40 20L8 20L8 22L40 22L40 20Z" fill="#313131"/>
</svg>
