<svg width="20" height="14" viewBox="0 0 20 14" fill="none" xmlns="http://www.w3.org/2000/svg">
<path fill-rule="evenodd" clip-rule="evenodd" d="M0 1.79338H2.91887C2.96988 2.6498 3.33782 3.24641 3.85531 3.60869C4.33124 3.99334 4.93603 4.20419 5.561 4.20337C7.01717 4.20337 8.19761 3.08241 8.19761 1.69962C8.19823 1.28085 8.08775 0.868688 7.87639 0.501162C9.29968 0.499613 10.7218 0.499613 12.1429 0.501162C11.9316 0.868696 11.8211 1.28086 11.8218 1.69962C11.8218 3.08241 13.0022 4.20337 14.4583 4.20337C14.8059 4.20377 15.1502 4.13868 15.4711 4.01188C15.7921 3.88508 16.0834 3.69908 16.3281 3.46465C16.5633 3.25784 16.7565 2.99339 16.89 2.66878C17.0127 2.39102 17.0814 2.09442 17.0928 1.79338H20L17.0448 13.5H2.95529L0 1.79338Z" fill="#313131"/>
</svg>
