<svg width="40" height="40" viewBox="0 0 40 40" fill="none" xmlns="http://www.w3.org/2000/svg">
<g clip-path="url(#clip0_2034_162)">
<path fill-rule="evenodd" clip-rule="evenodd" d="M30.6882 7.36895L28.7499 1.09229L26.8115 7.36895L23.0615 9.15479L26.8282 10.9481L28.7499 16.4398L30.6715 10.9481L34.4382 9.15479L30.6882 7.36895ZM28.1882 8.55895L28.7499 6.74062L29.3115 8.55978L30.5615 9.15479L29.3282 9.74228L28.7499 11.394L28.1715 9.74228L26.9382 9.15479L28.1882 8.55895Z" fill="#313131"/>
<path d="M15.8335 9.33333L16.6668 6L17.5002 9.33333L20.0002 10.1667L17.5002 11L16.6668 14.3333L15.8335 11L13.3335 10.1667L15.8335 9.33333Z" fill="#313131"/>
<path fill-rule="evenodd" clip-rule="evenodd" d="M10.8333 29.1248V29.3298C10.8333 29.7718 10.6577 30.1957 10.3452 30.5083C10.0326 30.8209 9.60869 30.9965 9.16667 30.9965H6.66667C6.22464 30.9965 5.80072 30.8209 5.48816 30.5083C5.17559 30.1957 5 29.7718 5 29.3298V20.1673C5 19.7253 5.17559 19.3013 5.48816 18.9888C5.80072 18.6762 6.22464 18.5006 6.66667 18.5006H9.16667C9.54202 18.5005 9.90644 18.627 10.2009 18.8598C10.4954 19.0925 10.7026 19.4179 10.7892 19.7831C11.8925 19.3856 13.1817 18.9123 13.5758 18.7323C13.9108 18.5798 14.2975 18.5281 14.6192 18.509C14.9511 18.4927 15.2838 18.4986 15.615 18.5265C15.9858 18.5566 16.355 18.6033 16.7217 18.6665L16.7408 18.6698L16.7467 18.6706H16.7492L16.7642 18.674L22.3392 19.924L22.3733 19.9356L22.3825 19.939L22.4208 19.9506L22.5783 19.9956C22.7158 20.034 22.9133 20.0848 23.1492 20.1365C23.6283 20.2406 24.2325 20.3381 24.795 20.3381C25.315 20.3381 25.8533 20.5323 26.14 21.059C26.3867 21.5106 26.3292 22.0073 26.2375 22.3506C26.1217 22.779 25.8833 23.229 25.5808 23.6115C25.9892 23.4573 26.4367 23.2748 26.9167 23.0781L27.0192 23.0365C28.3717 22.4806 29.975 21.8223 31.39 21.589C33.0067 21.3215 34.1825 21.9081 34.7158 22.949C35.1908 23.8756 35.0808 25.0915 34.3658 25.824C34.1867 26.0081 33.9133 26.2015 33.6392 26.379C33.3458 26.5698 32.985 26.784 32.5842 27.0123C31.6633 27.5278 30.7311 28.0229 29.7883 28.4973C27.8117 29.4998 25.74 30.4748 25.0817 30.7156C24.3183 30.9948 23.4983 31.0215 22.7108 30.9806C22.2353 30.9511 21.7604 30.9108 21.2867 30.8598C20.9398 30.8239 20.5926 30.7919 20.245 30.764C18.6383 30.6423 17.405 30.2498 16.27 29.889L16.1317 29.8448C14.9583 29.4731 13.8667 29.1423 12.4208 29.084C12.0908 29.0706 11.4308 29.0965 10.8333 29.1248ZM14.2667 20.2481C14.3208 20.2231 14.4625 20.1873 14.715 20.1723C14.9517 20.1581 15.2217 20.1673 15.4858 20.1873C15.8019 20.2132 16.1166 20.2529 16.4292 20.3065H16.4317L21.9042 21.534L21.9417 21.5456C21.9878 21.5601 22.0517 21.5784 22.1333 21.6006C22.295 21.6456 22.5233 21.7048 22.7942 21.764C23.2817 21.8706 23.9358 21.9823 24.6008 22.0015C24.5416 22.1618 24.4621 22.3139 24.3642 22.454C24.2308 22.6473 24.085 22.7965 23.965 22.8823C23.6183 23.1306 23.3383 23.234 23.1683 23.2781C23.1105 23.2941 23.0514 23.3053 22.9917 23.3115H22.9733L18.505 23.2581L18.3467 24.9115L18.3908 24.9198L18.5183 24.9423L18.9817 25.024C19.3708 25.0923 19.905 25.184 20.4867 25.279C21.6317 25.4656 23.0117 25.6723 23.795 25.7198C24.3367 25.7531 24.9667 25.5865 25.5525 25.3906C26.1633 25.1865 26.8542 24.904 27.5492 24.619C28.98 24.0323 30.4375 23.4348 31.6617 23.2323C32.72 23.0573 33.0975 23.444 33.2325 23.7081C33.4267 24.0873 33.3217 24.5081 33.1725 24.6598C33.1367 24.6973 33.0058 24.8031 32.7325 24.9806C32.4775 25.1448 32.1483 25.3423 31.7617 25.5615C30.8635 26.0642 29.9544 26.5471 29.035 27.0098C27.0417 28.0206 25.0583 28.9481 24.5083 29.1498C24.0633 29.3131 23.5125 29.3523 22.7967 29.3156C22.375 29.2908 21.954 29.255 21.5342 29.2081C21.1469 29.1673 20.7591 29.1318 20.3708 29.1015C18.9608 28.9948 17.8892 28.654 16.74 28.289L16.6358 28.2556C15.4458 27.8781 14.1725 27.4856 12.4883 27.4181C12.1092 27.4031 11.4342 27.4265 10.8333 27.4548V21.5373C12.005 21.1181 13.7392 20.489 14.2667 20.2481ZM9.16667 20.1665H6.66667V29.329H9.16667V20.1665Z" fill="#313131"/>
</g>
<defs>
<clipPath id="clip0_2034_162">
<rect width="40" height="40" fill="white"/>
</clipPath>
</defs>
</svg>
