<svg width="48" height="48" viewBox="0 0 48 48" fill="none" xmlns="http://www.w3.org/2000/svg">
<path d="M11.0191 11.877C10.8458 13.4079 11.7991 16.8337 16.0401 16.8337M32.0824 16.7716C33.8736 17.059 37.1641 15.4992 36.9936 11.8943M36.9907 34.9967C37.0774 33.4716 35.8135 30.0227 32.0882 29.832M15.9867 29.9014C14.8282 29.5547 11.0191 31.1492 11.0191 34.9967M20.1438 13.5061C20.1785 12.0329 20.8878 9 24.0049 9C26.7754 9 27.736 11.3397 27.866 13.5061M11.0191 23.2982H15.2615M36.9907 23.2982H32.835M24.0049 28.4975V33.9568M15.7108 18.2722C15.8841 17.1456 17.2 14.5113 20.1958 14.2513C23.2264 14.1358 27.3821 14.182 28.1607 14.3033C29.1819 14.3943 31.6491 15.4125 32.3063 18.2722C32.5418 19.7453 32.4204 21.825 32.4551 23.0382C32.4031 24.2514 32.5533 26.711 32.3164 27.9776C32.1431 29.3641 31.2071 31.3398 29.9258 32.553C28.022 34.5981 22.793 36.7472 18.2733 32.761C15.9361 30.5079 15.7801 28.3242 15.6082 27.4577C15.5605 26.9926 15.5634 24.7107 15.5735 22.5183C15.5389 20.622 15.5822 18.795 15.7108 18.2722Z" stroke="#313131" stroke-width="2" stroke-linecap="round" stroke-linejoin="round"/>
</svg>
