<svg width="48" height="48" viewBox="0 0 48 48" fill="none" xmlns="http://www.w3.org/2000/svg">
<path d="M28.2241 17.4337C32.2585 24.1538 31.8469 31.6459 27.3049 34.1679C22.7629 36.6898 15.8103 33.2864 11.7759 26.5663C7.74151 19.8462 8.15306 12.354 12.6951 9.83213C17.2371 7.31021 24.1897 10.7135 28.2241 17.4337Z" stroke="#313131" stroke-width="2" stroke-linecap="round" stroke-linejoin="round"/>
<path d="M19.6497 17.4337C15.7987 24.1538 16.1915 31.6459 20.5271 34.1679C24.8627 36.6898 31.4993 33.2864 35.3503 26.5663C39.2013 19.8462 38.8084 12.354 34.4728 9.83213C30.1373 7.31021 23.5007 10.7135 19.6497 17.4337Z" stroke="#313131" stroke-width="2" stroke-linecap="round" stroke-linejoin="round"/>
<path d="M24 12C25.57 13.3645 27.0223 15.0936 28.2186 17.1183C32.261 23.9605 31.8486 31.5887 27.2976 34.1565C26.3474 34.6926 25.2919 34.9657 24.1798 35" stroke="#313131" stroke-width="2" stroke-linecap="round" stroke-linejoin="round"/>
</svg>
