<svg width="73" height="49" viewBox="0 0 73 49" fill="none" xmlns="http://www.w3.org/2000/svg">
<g clip-path="url(#clip0_96_291)">
<path fill-rule="evenodd" clip-rule="evenodd" d="M68.74 47.8692L68.136 46.7257C68.2834 46.6767 68.4109 46.5826 68.4998 46.4573C68.5887 46.332 68.6344 46.1821 68.63 46.0295C68.63 45.5862 68.3034 45.2176 67.7523 45.2176H66.6928V47.8684H67.2205V46.811H67.6005L68.1286 47.8684L68.74 47.8692ZM68.1019 46.0295C68.1019 46.2343 67.9501 46.3796 67.7182 46.3796H67.2205V45.6795H67.7186C67.9501 45.6795 68.1019 45.8244 68.1019 46.0295ZM67.5853 44.0447C68.1786 44.0445 68.7535 44.2461 69.2122 44.615C69.6709 44.9839 69.985 45.4974 70.1008 46.0679C70.2167 46.6385 70.1272 47.2307 69.8477 47.7438C69.5681 48.2569 69.1157 48.6591 68.5677 48.8818C68.0196 49.1045 67.4097 49.1339 66.842 48.9651C66.2742 48.7963 65.7837 48.4397 65.4541 47.956C65.1245 47.4723 64.9761 46.8916 65.0342 46.3126C65.0923 45.7337 65.3534 45.1924 65.7729 44.7811C66.0106 44.5473 66.2931 44.3619 66.6041 44.2355C66.9152 44.1092 67.2486 44.0443 67.5853 44.0447ZM69.0385 45.1341C68.7023 44.8044 68.26 44.5992 67.7868 44.5535C67.3137 44.5078 66.839 44.6244 66.4437 44.8833C66.0483 45.1423 65.7568 45.5277 65.6188 45.9738C65.4808 46.42 65.5048 46.8992 65.6868 47.3299C65.8687 47.7606 66.1973 48.1161 66.6166 48.3359C67.0359 48.5556 67.52 48.626 67.9863 48.5351C68.4526 48.4441 68.8723 48.1974 69.1739 47.837C69.4755 47.4766 69.6403 47.0248 69.6403 46.5586C69.6406 46.294 69.5876 46.0318 69.4843 45.7873C69.3811 45.5428 69.2295 45.3207 69.0385 45.1337V45.1341Z" fill="#313131"/>
<path fill-rule="evenodd" clip-rule="evenodd" d="M0 4.8485H10.5967C10.7819 8.05893 12.1177 10.2954 13.9964 11.6535C15.7242 13.0955 17.9198 13.8859 20.1887 13.8828C25.4752 13.8828 29.7607 9.68066 29.7607 4.49699C29.7629 2.92718 29.3619 1.3821 28.5945 0.00435755C33.7616 -0.00145252 38.9247 -0.00145252 44.0837 0.00435755C43.3164 1.38213 42.9155 2.92721 42.9179 4.49699C42.9179 9.68066 47.2034 13.8828 52.4895 13.8828C53.7515 13.8843 55.0013 13.6403 56.1665 13.165C57.3317 12.6896 58.3892 11.9924 59.2777 11.1136C60.1317 10.3383 60.8331 9.34694 61.3175 8.1301C61.7632 7.08887 62.0126 5.97701 62.0537 4.8485H72.6082L61.8796 48.733H10.7289L0 4.8485Z" fill="#313131"/>
<path fill-rule="evenodd" clip-rule="evenodd" d="M17.7611 38.6051V33.1625H24.4271V30.6337H17.7611V27.6389H24.5693V25.1101H14.8296V38.6051H17.7611ZM35.2275 38.6051V36.0763H28.4171V33.1625H35.0831V30.6337H28.4171V27.6389H35.2264V25.1101H25.4867V38.6051H35.2275ZM47.2874 38.6051L44.1925 33.4661C48.6106 32.4431 48.3143 25.1101 42.5827 25.1101H36.1441V38.6051H39.0742V33.8092H41.2199L43.9233 38.6025L47.2874 38.6051ZM42.1498 31.2808H39.076V27.6389H42.1498C44.8788 27.6389 44.8788 31.2808 42.1487 31.2808H42.1498ZM58.1715 38.6051V36.0763H51.5259L58.0256 27.4182V25.1119H47.6877V27.6408H54.1878L47.6877 36.2785V38.6054L58.1715 38.6051Z" fill="white"/>
</g>
<defs>
<clipPath id="clip0_96_291">
<rect width="73" height="49" fill="white"/>
</clipPath>
</defs>
</svg>
