<svg width="48" height="48" viewBox="0 0 48 48" fill="none" xmlns="http://www.w3.org/2000/svg">
<path d="M39.9998 24V30C39.9998 32.6 33.7318 36 25.9998 36C18.2678 36 11.9998 32.6 11.9998 30V25" stroke="#313131" stroke-width="2" stroke-linecap="round" stroke-linejoin="round"/>
<path d="M11.9998 25.7261C13.7669 27.9312 19.2316 30 25.6994 30C33.5973 30 39.9998 26.9151 39.9998 24.2643C39.9998 22.7756 37.9834 21.1448 34.819 20" stroke="#313131" stroke-width="2" stroke-linecap="round" stroke-linejoin="round"/>
<path d="M33.9998 14V20C33.9998 22.6 27.7318 26 19.9998 26C12.2678 26 5.99976 22.6 5.99976 20V14" stroke="#313131" stroke-width="2" stroke-linecap="round" stroke-linejoin="round"/>
<path fill-rule="evenodd" clip-rule="evenodd" d="M19.9998 20C27.7318 20 33.9998 16.7794 33.9998 14.012C33.9998 11.2426 27.7318 8 19.9998 8C12.2678 8 5.99976 11.2426 5.99976 14.012C5.99976 16.7794 12.2678 20 19.9998 20Z" stroke="#313131" stroke-width="2" stroke-linecap="round" stroke-linejoin="round"/>
</svg>
